<svg width="30" height="30" viewBox="0 0 30 30" fill="none" xmlns="http://www.w3.org/2000/svg">
<path fill-rule="evenodd" clip-rule="evenodd" d="M27.1875 15L27.9657 14.61V14.6063L27.96 14.6006L27.9488 14.5781L27.9094 14.5031L27.7594 14.2331C27.5764 13.9174 27.3819 13.6085 27.1763 13.3069C26.4903 12.2999 25.7017 11.3668 24.8232 10.5225C22.7119 8.49752 19.4625 6.43127 15 6.43127C10.5413 6.43127 7.29003 8.49565 5.17878 10.5225C4.30027 11.3668 3.51168 12.2999 2.82566 13.3069C2.54729 13.7176 2.28948 14.1419 2.05316 14.5781L2.04191 14.6006L2.03816 14.6063V14.6081C2.03816 14.6081 2.03628 14.61 2.81441 15L2.03628 14.6081C1.97612 14.7297 1.94482 14.8635 1.94482 14.9991C1.94482 15.1347 1.97612 15.2685 2.03628 15.39L2.03441 15.3938L2.04003 15.3994L2.05128 15.4219C2.10975 15.539 2.17229 15.6541 2.23878 15.7669C3.04616 17.1308 4.03381 18.3795 5.17503 19.4794C7.28816 21.5044 10.5375 23.5669 15 23.5669C19.4607 23.5669 22.7119 21.5044 24.825 19.4775C25.7019 18.6322 26.4898 17.6992 27.1763 16.6931C27.4392 16.3061 27.6838 15.9069 27.9094 15.4969L27.9488 15.4219L27.96 15.3994L27.9638 15.3938V15.3919C27.9638 15.3919 27.9657 15.39 27.1875 15ZM27.1875 15L27.9657 15.3919C28.0258 15.2704 28.0571 15.1366 28.0571 15.001C28.0571 14.8653 28.0258 14.7316 27.9657 14.61L27.1875 15ZM14.8875 12.12C14.1237 12.12 13.3912 12.4235 12.8511 12.9636C12.311 13.5037 12.0075 14.2362 12.0075 15C12.0075 15.7638 12.311 16.4964 12.8511 17.0365C13.3912 17.5766 14.1237 17.88 14.8875 17.88C15.6514 17.88 16.3839 17.5766 16.924 17.0365C17.4641 16.4964 17.7675 15.7638 17.7675 15C17.7675 14.2362 17.4641 13.5037 16.924 12.9636C16.3839 12.4235 15.6514 12.12 14.8875 12.12ZM10.2713 15C10.2713 13.7747 10.758 12.5996 11.6244 11.7332C12.4909 10.8668 13.666 10.38 14.8913 10.38C16.1166 10.38 17.2917 10.8668 18.1581 11.7332C19.0245 12.5996 19.5113 13.7747 19.5113 15C19.5113 16.2253 19.0245 17.4004 18.1581 18.2669C17.2917 19.1333 16.1166 19.62 14.8913 19.62C13.666 19.62 12.4909 19.1333 11.6244 18.2669C10.758 17.4004 10.2713 16.2253 10.2713 15Z" fill="black"/>
</svg>
